# xmcd
#
# Track frame offsets: 
#        150
#        19982
#        39317
#        59575
#        80147
#        103065
#        120622
#        140920
#        162627
#        183942
#        203237
#        225092
#        247002
#        264782
#        285482
#
# Disc length: 4071 seconds
#
# Revision: 0
# Processed by: cddbd v1.5PL3 Copyright (c) Steve Scherf et al.
# Submitted via: ExactAudioCopy v0.95a3
#
DISCID=d50fe50f
DTITLE=Lisa Stansfield - face up
DYEAR=2001
DGENRE=House
TTITLE0=i've got something better
TTITLE1=let's just call it love
TTITLE2=you can do that
TTITLE3=how could you?
TTITLE4=candy
TTITLE5=i'm coming to get you
TTITLE6=8-3-1
TTITLE7=wish on me
TTITLE8=boyfriend
TTITLE9=don't leave now i'me in love
TTITLE10=didn't i
TTITLE11=face up
TTITLE12=when the last sun goes down
TTITLE13=let's just call it love (dreemhouse mix, full extended versio
TTITLE13=n)
TTITLE14=can't wait to
EXTD=
EXTT0=
EXTT1=
EXTT2=
EXTT3=
EXTT4=
EXTT5=
EXTT6=
EXTT7=
EXTT8=
EXTT9=
EXTT10=
EXTT11=
EXTT12=
EXTT13=
EXTT14=
PLAYORDER=
